# xmcd
#
# Track frame offsets:
#	150
#	19602
#	39801
#	60542
#	79703
#	92153
#	112152
#	129562
#	145763
#	166665
#
# Disc length: 2479 seconds
#
# Revision: 1
# Processed by: cddbd v1.5PL3 Copyright (c) Steve Scherf et al.
# Submitted via: audiograbber 1.83.01
#
DISCID=7509ad0a
DTITLE=Sean Chambers - Humble Spirits
DYEAR=2004
DGENRE=Blues-Rock
TTITLE0=Time Passes
TTITLE1=Rock Me Baby
TTITLE2=Tom Cat
TTITLE3=Loneliness
TTITLE4=Return to Groove
TTITLE5=Livin' Together [Ain't Always Easy]
TTITLE6=I Still Love You
TTITLE7=I'm Ready Now
TTITLE8=Love Can Find A Way
TTITLE9=Humble Spirits
EXTD=
EXTT0=
EXTT1=
EXTT2=
EXTT3=
EXTT4=
EXTT5=
EXTT6=
EXTT7=
EXTT8=
EXTT9=
PLAYORDER=
